<svg class="logo_img" width="56" height="38" viewBox="0 0 56 38" fill="none"
  xmlns="http://www.w3.org/2000/svg">
  <path d="M55.6989 30.0168L0 38.0002V15.229L55.6989 7.24561V30.0168Z" fill="#076CFC"></path>
  <path d="M3.09253 7.98338L12.3702 13.4557L55.6988 7.24539L3.09253 0V7.98338Z"
    fill="url(#paint0_linear_229_7362)"></path>
  <path d="M49.5137 6.39354L3.09253 0H49.5137V6.39354Z" fill="#C3FDD4"></path>
  <path
    d="M8.72504 23.2775L8.74772 23.2744L8.76525 23.2899L15.9028 29.4775L18.716 29.08V18.834L16.3327 19.1714V26.3412V26.3858L16.2884 26.392L16.2286 26.4013L16.2049 26.4044L16.1874 26.3889L9.04976 20.2003L6.23657 20.5977V30.8437L8.6199 30.5073V23.3375V23.292L8.66422 23.2858L8.72504 23.2775Z"
    fill="white"></path>
  <path
    d="M32.9716 27.0221L35.5065 26.664V16.418L32.1511 16.892L28.1308 25.1538L28.1184 25.1787L28.0916 25.1828L28.0308 25.1911L27.9967 25.1963L27.9792 25.1652L23.9641 18.0482L20.5715 18.5284V28.7745L23.0765 28.4205V21.585V21.5405L23.1208 21.5343L23.1806 21.526L23.2157 21.5208L23.2332 21.5508L26.8236 27.8905L29.2327 27.55L32.8139 20.1876L32.8252 20.1628L32.8531 20.1587L32.9129 20.1504L32.9716 20.1421V20.2011V27.0221Z"
    fill="white"></path>
  <path
    d="M46.9283 25.006L49.4622 24.6479V14.4019L46.9283 14.76V18.7035V18.7481L46.884 18.7543L39.9557 19.7334L39.8969 19.7417V19.6827V15.7536L37.3621 16.1118V26.3578L39.8969 25.9997V21.8739V21.8284L39.9412 21.8222L46.8696 20.844L46.9283 20.8358V20.8948V25.006Z"
    fill="white"></path>
  <defs>
    <linearGradient id="paint0_linear_229_7362" x1="3.09253" y1="6.72786" x2="55.6991" y2="6.72786"
      gradientUnits="userSpaceOnUse">
      <stop stop-color="#C3FDD4"></stop>
      <stop offset="0.1148" stop-color="#BDF9D5"></stop>
      <stop offset="0.2652" stop-color="#ADECD9"></stop>
      <stop offset="0.4353" stop-color="#92D7DE"></stop>
      <stop offset="0.6199" stop-color="#6CBAE7"></stop>
      <stop offset="0.814" stop-color="#3C95F1"></stop>
      <stop offset="1" stop-color="#076CFC"></stop>
    </linearGradient>
  </defs>
</svg>