<svg class="logo_text" width="122" height="26" viewBox="0 0 122 26" fill="#076CFC" xmlns="http://www.w3.org/2000/svg">
  <path
    d="M0.0690918 0.623535H2.94929L10.1044 7.83891H10.1652V0.623535H12.6516V10.9741H9.77145L2.61632 3.75975H2.5555V10.9741H0.0690918V0.623535Z"></path>
  <path
    d="M14.4082 0.623535H25.5053V2.81578H17.0461V4.65715H24.4745V6.75728H17.0461V8.78184H25.5053V10.9731H14.4082V0.623535Z"></path>
  <path
    d="M26.1104 0.623535H29.0359L31.5378 8.24983H31.5986L34.1912 0.623535H36.9807L39.5732 8.24983H39.6341L42.1349 0.623535H44.9543L41.1041 10.9741H38.0868L35.5705 3.51548H35.4952L32.9789 10.9741H29.9616L26.1104 0.623535Z"></path>
  <path
    d="M44.739 9.71013L46.2245 7.70109C47.2862 8.64506 49.2263 9.05598 50.9385 9.05598C52.7425 9.05598 53.6373 8.70613 53.6373 8.05094C53.6373 6.20957 45.3153 8.05094 45.3153 3.75856C45.3153 1.30755 47.9831 0.410156 50.8787 0.410156C53.1528 0.410156 55.1238 0.821073 56.2454 1.70398L54.8351 3.62193C53.9868 2.9212 52.3941 2.54134 50.8489 2.54134C49.2119 2.54134 48.0594 2.87669 48.0594 3.53085C48.0594 5.25111 56.3969 3.63746 56.3969 7.80873C56.3969 10.3508 53.896 11.1872 50.9097 11.1872C48.4387 11.1861 46.043 10.7307 44.739 9.71013Z"></path>
  <path
    d="M61.5798 0.623535H65.0517L69.0844 8.34091H69.1452L73.1779 0.623535H76.6189V10.9741H73.9809V4.09408H73.9201L70.3276 10.9741H67.8567L64.2487 4.09408H64.1879V10.9741H61.5798V0.623535Z"></path>
  <path
    d="M78.3745 0.623535H89.4716V2.81578H81.0125V4.65715H88.4408V6.75728H81.0125V8.78184H89.4716V10.9731H78.3745V0.623535Z"></path>
  <path
    d="M90.8035 0.623535H97.0339C101.006 0.623535 103.295 2.43488 103.295 5.60112V6.01204C103.295 9.17827 101.007 10.9741 97.0339 10.9741H90.8035V0.623535ZM96.7309 8.75183C99.141 8.75183 100.597 8.06662 100.597 5.85988V5.73775C100.597 3.53101 99.141 2.8458 96.7309 2.8458H93.4414V8.75183H96.7309Z"></path>
  <path d="M104.43 0.623535H107.068V10.9741H104.43V0.623535Z"></path>
  <path
    d="M113.571 0.623535H116.254L121.999 10.9741H118.998L117.922 8.85844H111.843L110.767 10.9741H107.826L113.571 0.623535ZM116.83 6.72726L114.905 2.93688H114.859L112.934 6.72726H116.83Z"></path>
  <path
    d="M9.63538 21.2936H2.70703V25.4638H0.0690918V15.1133H2.70703V19.1014H9.63538V15.1133H12.2733V25.4638H9.63538V21.2936Z"></path>
  <path
    d="M13.6052 20.4871V20.0917C13.6052 16.9099 16.0009 14.9009 20.4264 14.9009C24.8518 14.9009 27.2485 16.9099 27.2485 20.0917V20.4871C27.2485 23.6688 24.8528 25.6779 20.4264 25.6779C15.9999 25.6779 13.6052 23.6678 13.6052 20.4871ZM20.4274 23.5467C23.0045 23.5467 24.5508 22.5572 24.5508 20.3504V20.2283C24.5508 18.0216 23.0045 17.0321 20.4274 17.0321C17.8503 17.0321 16.304 18.0216 16.304 20.2283V20.3504C16.304 22.5572 17.8503 23.5467 20.4274 23.5467Z"></path>
  <path d="M28.5813 15.1143H31.2192V23.2425H38.5867V25.4648H28.5813V15.1143Z"></path>
  <path
    d="M39.7671 15.1143H45.9975C49.9694 15.1143 52.2589 16.9256 52.2589 20.0918V20.5028C52.2589 23.669 49.9694 25.4648 45.9975 25.4648H39.7671V15.1143ZM45.6945 23.2425C48.1046 23.2425 49.5602 22.5573 49.5602 20.3506V20.2285C49.5602 18.0217 48.1046 17.3365 45.6945 17.3365H42.405V23.2425H45.6945Z"></path>
  <path d="M53.3938 15.1143H56.0317V25.4648H53.3938V15.1143Z"></path>
  <path
    d="M57.5925 15.1143H60.4727L67.6278 22.3296H67.6887V15.1143H70.1751V25.4648H67.2949L60.1398 18.2505H60.0789V25.4648H57.5925V15.1143Z"></path>
  <path
    d="M71.5081 20.4871V20.0917C71.5081 16.9099 73.9182 14.9009 78.1179 14.9009C81.5135 14.9009 83.3329 15.7838 84.2875 17.2908L82.0289 18.6147C81.3465 17.6096 80.2095 17.0321 78.1931 17.0321C75.7376 17.0321 74.2058 18.0371 74.2058 20.2283V20.3504C74.2058 22.5417 75.7675 23.5467 78.0107 23.5467C80.1785 23.5467 81.4217 22.9381 81.9671 21.842L82.0124 21.7509H78.3436V19.8174H84.4978V25.4647H82.1938L82.1176 23.6533H82.0567C81.3898 24.9316 80.1311 25.6779 77.6303 25.6779C73.8883 25.6768 71.5081 23.6678 71.5081 20.4871Z"></path>
</svg>